<?xml version="1.0" encoding="utf-8"?>
<!-- Generator: Adobe Illustrator 16.0.0, SVG Export Plug-In . SVG Version: 6.00 Build 0)  -->
<!DOCTYPE svg PUBLIC "-//W3C//DTD SVG 1.1//EN" "http://www.w3.org/Graphics/SVG/1.1/DTD/svg11.dtd">
<svg version="1.1" id="圖層_1" xmlns="http://www.w3.org/2000/svg" xmlns:xlink="http://www.w3.org/1999/xlink" x="0px" y="0px"
	 width="750px" height="700px" viewBox="0 0 750 700" style="enable-background:new 0 0 750 700;" xml:space="preserve">
<style type="text/css">
<![CDATA[
	.st0{fill:none;stroke:#231815;stroke-miterlimit:10;}
	.st1{fill:#E7D6B2;}
	.st2{fill:#EEE1BD;}
	.st3{fill:#D8C7A7;stroke:#D8C7A7;stroke-width:10;stroke-miterlimit:10;}
	.st4{fill:#FFFFFF;}
]]>
</style>
<g>
	<path class="st3" d="M56.852,536.501c-5.875-10.766-3.243-23.197,5.747-26.629c9.895-4.053,19.945-7.882,29.089-13.023
		c8.596-4.65,19.716-4.297,26.316,2.95c27.999,30.73,55.998,61.459,83.996,92.188c6.604,7.245,5.925,18.351,0.498,26.479
		c-5.968,8.626-10.714,18.277-15.667,27.754c-4.251,8.632-16.874,10.099-27.047,3.251C118,619.374,82.942,580.896,56.852,536.501z"
		/>
	<path class="st3" d="M56.852,536.501c-5.875-10.766-3.243-23.197,5.747-26.629c9.895-4.053,19.945-7.882,29.089-13.023
		c8.596-4.65,19.716-4.297,26.316,2.95c27.999,30.73,55.998,61.459,83.996,92.188c6.604,7.245,5.925,18.351,0.498,26.479
		c-5.968,8.626-10.714,18.277-15.667,27.754c-4.251,8.632-16.874,10.099-27.047,3.251C118,619.374,82.942,580.896,56.852,536.501z"
		/>
</g>
<g>
	<path class="st3" d="M590.217,50.529c-10.174-6.849-22.796-5.381-27.047,3.251c-4.953,9.476-9.699,19.128-15.666,27.755
		c-5.429,8.127-6.108,19.232,0.496,26.477c27.998,30.73,55.997,61.459,83.995,92.188c6.602,7.248,17.722,7.602,26.318,2.952
		c9.144-5.142,19.194-8.972,29.089-13.024c8.989-3.432,11.62-15.864,5.746-26.629C667.059,119.104,632,80.626,590.217,50.529z"/>
	<path class="st3" d="M590.217,50.529c-10.174-6.849-22.796-5.381-27.047,3.251c-4.953,9.476-9.699,19.128-15.666,27.755
		c-5.429,8.127-6.108,19.232,0.496,26.477c27.998,30.73,55.997,61.459,83.995,92.188c6.602,7.248,17.722,7.602,26.318,2.952
		c9.144-5.142,19.194-8.972,29.089-13.024c8.989-3.432,11.62-15.864,5.746-26.629C667.059,119.104,632,80.626,590.217,50.529z"/>
</g>
<g>
	<path class="st3" d="M24.729,797.784c2.823-11.567,12.841-18.769,21.536-15.353c9.752,3.561,19.469,7.385,29.392,9.674
		c9.209,2.284,16.958,9.81,16.957,19.326c0,40.361,0,80.722,0,121.083c0.001,9.518-7.748,17.043-16.957,19.327
		c-9.923,2.289-19.64,6.112-29.392,9.674c-8.695,3.415-18.713-3.786-21.536-15.353C14.423,897.242,14.423,846.705,24.729,797.784z"
		/>
	<path class="st3" d="M24.729,797.784c2.823-11.567,12.841-18.769,21.536-15.353c9.752,3.561,19.469,7.385,29.392,9.674
		c9.209,2.284,16.958,9.81,16.957,19.326c0,40.361,0,80.722,0,121.083c0.001,9.518-7.748,17.043-16.957,19.327
		c-9.923,2.289-19.64,6.112-29.392,9.674c-8.695,3.415-18.713-3.786-21.536-15.353C14.423,897.242,14.423,846.705,24.729,797.784z"
		/>
</g>
<g>
	<path class="st3" d="M725.271,797.784c-2.823-11.567-12.841-18.769-21.536-15.353c-9.751,3.561-19.469,7.385-29.393,9.674
		c-9.209,2.284-16.958,9.81-16.956,19.326c0,40.361,0,80.722,0,121.083c-0.002,9.518,7.747,17.043,16.956,19.327
		c9.924,2.289,19.642,6.112,29.393,9.674c8.695,3.415,18.713-3.786,21.536-15.353C735.577,897.242,735.577,846.705,725.271,797.784z
		"/>
	<path class="st3" d="M725.271,797.784c-2.823-11.567-12.841-18.769-21.536-15.353c-9.751,3.561-19.469,7.385-29.393,9.674
		c-9.209,2.284-16.958,9.81-16.956,19.326c0,40.361,0,80.722,0,121.083c-0.002,9.518,7.747,17.043,16.956,19.327
		c9.924,2.289,19.642,6.112,29.393,9.674c8.695,3.415,18.713-3.786,21.536-15.353C735.577,897.242,735.577,846.705,725.271,797.784z
		"/>
</g>
<g>
	<path class="st4" d="M266.58-84.98c-13.422-3.275-21.775-14.898-17.813-24.987c4.132-11.315,8.568-22.589,11.225-34.102
		c2.649-10.685,11.381-19.676,22.422-19.674c46.83,0,93.659,0,140.487,0c11.043-0.001,19.773,8.989,22.424,19.674
		c2.656,11.513,7.092,22.787,11.225,34.102c3.963,10.088-4.393,21.711-17.813,24.987C381.975-73.023,323.339-73.023,266.58-84.98z"
		/>
	<path class="st0" d="M266.58-84.98c-13.422-3.275-21.775-14.898-17.813-24.987c4.132-11.315,8.568-22.589,11.225-34.102
		c2.649-10.685,11.381-19.676,22.422-19.674c46.83,0,93.659,0,140.487,0c11.043-0.001,19.773,8.989,22.424,19.674
		c2.656,11.513,7.092,22.787,11.225,34.102c3.963,10.088-4.393,21.711-17.813,24.987C381.975-73.023,323.339-73.023,266.58-84.98z"
		/>
</g>
<path class="st1" d="M684.085,364.37c-7.937,170.703-152.753,302.652-323.456,294.716S57.979,506.331,65.916,335.628
	c7.937-170.701,152.752-302.65,323.456-294.713C560.074,48.852,692.021,193.668,684.085,364.37z"/>
<circle class="st2" cx="375" cy="350" r="293.948"/>
<image style="overflow:visible;" width="750" height="531" xlink:href="C:\Users\USER\Downloads\b4fcf30fd25996a3b47f5a2784e24405_w.jpeg"  transform="matrix(1 0 0 1 -805.498 14.0947)">
</image>
</svg>
