<?xml version="1.0" encoding="utf-8"?>
<!-- Generator: Adobe Illustrator 22.1.0, SVG Export Plug-In . SVG Version: 6.00 Build 0)  -->
<svg version="1.1" id="_x39_" xmlns="http://www.w3.org/2000/svg" xmlns:xlink="http://www.w3.org/1999/xlink" x="0px" y="0px"
	 viewBox="0 0 128 128" style="enable-background:new 0 0 128 128;" xml:space="preserve">
<style type="text/css">
	.st0{fill:#858273;}
	.st1{fill:#393627;}
</style>
<g>
	<rect class="st0" width="128" height="128"/>
	<g>
		<ellipse class="st1" cx="32.329" cy="29.468" rx="0.995" ry="0.597"/>
		<path class="st1" d="M43.549,41.26c-0.412,0-0.746,0.267-0.746,0.597c0,0.329,0.334,0.597,0.746,0.597
			c0.412,0,0.746-0.267,0.746-0.597C44.294,41.528,43.96,41.26,43.549,41.26z"/>
		<ellipse class="st1" cx="25.446" cy="43.922" rx="0.995" ry="0.597"/>
		<path class="st1" d="M46.784,16.894c-0.769,0-1.392,0.267-1.392,0.597s0.623,0.597,1.392,0.597s1.393-0.267,1.393-0.597
			S47.553,16.894,46.784,16.894z"/>
		<path class="st1" d="M49.059,30.431c0,0.33,0.245,0.597,0.547,0.597c0.302,0,0.547-0.267,0.547-0.597
			c0-0.33-0.245-0.597-0.547-0.597C49.304,29.834,49.059,30.101,49.059,30.431z"/>
		<path class="st1" d="M59.3,47.088c0-0.329-0.334-0.597-0.746-0.597s-0.746,0.267-0.746,0.597c0,0.33,0.334,0.597,0.746,0.597
			S59.3,47.418,59.3,47.088z"/>
		<path class="st1" d="M50.344,58.704c-0.203-0.221-0.457-0.382-0.685-0.439c-0.229-0.059-0.421-0.014-0.519,0.117
			c-0.099,0.133-0.1,0.318-0.043,0.513c0.058,0.196,0.177,0.409,0.369,0.618c0.191,0.209,0.425,0.369,0.643,0.437
			c0.218,0.07,0.411,0.044,0.523-0.076c0.112-0.121,0.131-0.307,0.083-0.511C50.666,59.158,50.547,58.926,50.344,58.704z"/>
		<path class="st1" d="M22.762,65.214c-0.357,0-0.646,0.267-0.646,0.597c0,0.33,0.289,0.597,0.646,0.597
			c0.357,0,0.646-0.267,0.646-0.597C23.408,65.481,23.119,65.214,22.762,65.214z"/>
		<path class="st1" d="M10.854,25.98c-0.824,0-1.492,0.267-1.492,0.597c0,0.33,0.668,0.597,1.492,0.597
			c0.824,0,1.492-0.267,1.492-0.597C12.346,26.247,11.678,25.98,10.854,25.98z"/>
		<path class="st1" d="M21.454,9.828c0.33,0,0.597-0.267,0.597-0.597c0-0.33-0.267-0.597-0.597-0.597s-0.597,0.267-0.597,0.597
			C20.857,9.561,21.124,9.828,21.454,9.828z"/>
		<path class="st1" d="M27.415,12.99c0.233-0.233,0.311-0.533,0.173-0.671c-0.137-0.137-0.438-0.06-0.671,0.173
			c-0.233,0.233-0.311,0.533-0.173,0.671C26.882,13.301,27.182,13.223,27.415,12.99z"/>
		<path class="st1" d="M69.9,66.498c0-0.329-0.334-0.597-0.746-0.597c-0.412,0-0.746,0.267-0.746,0.597
			c0,0.33,0.334,0.597,0.746,0.597C69.566,67.095,69.9,66.828,69.9,66.498z"/>
		<path class="st1" d="M59.073,91.053c-0.24,0.226-0.231,0.624,0.011,0.892c0.241,0.267,0.632,0.315,0.884,0.103
			c0.252-0.212,0.256-0.621,0.001-0.903C59.715,90.864,59.312,90.827,59.073,91.053z"/>
		<ellipse class="st1" cx="32.742" cy="87.285" rx="1.094" ry="0.597"/>
		<path class="st1" d="M39.763,107.732c-0.33,0-0.597,0.245-0.597,0.547c0,0.302,0.267,0.547,0.597,0.547
			c0.329,0,0.597-0.245,0.597-0.547C40.36,107.977,40.092,107.732,39.763,107.732z"/>
		<path class="st1" d="M64.955,106.787c-0.769,0-1.393,0.267-1.393,0.597c0,0.33,0.623,0.597,1.393,0.597
			c0.769,0,1.392-0.267,1.392-0.597C66.347,107.055,65.724,106.787,64.955,106.787z"/>
		<path class="st1" d="M83.402,106.29c-0.33,0-0.597,0.49-0.597,1.094c0,0.604,0.267,1.094,0.597,1.094
			c0.33,0,0.597-0.49,0.597-1.094C83.998,106.78,83.731,106.29,83.402,106.29z"/>
		<path class="st1" d="M97.305,79.806c-0.549,0-0.995,0.267-0.995,0.597c0,0.33,0.445,0.597,0.995,0.597
			c0.549,0,0.995-0.267,0.995-0.597C98.3,80.073,97.855,79.806,97.305,79.806z"/>
		<path class="st1" d="M102.17,65.053c0-0.742-0.267-1.343-0.597-1.343c-0.33,0-0.597,0.601-0.597,1.343s0.267,1.343,0.597,1.343
			C101.903,66.396,102.17,65.795,102.17,65.053z"/>
		<path class="st1" d="M85.444,62.06c-0.13-0.135-0.281-0.209-0.438-0.238c-0.157-0.027-0.323-0.011-0.462,0.08
			c-0.137,0.09-0.215,0.246-0.209,0.433c0.005,0.185,0.094,0.393,0.249,0.553c0.154,0.16,0.336,0.241,0.505,0.257
			c0.17,0.015,0.333-0.033,0.45-0.148c0.117-0.116,0.163-0.281,0.141-0.454C85.659,62.37,85.574,62.195,85.444,62.06z"/>
		<path class="st1" d="M103.189,94.819c-0.031-0.074-0.077-0.147-0.145-0.223c-0.069-0.076-0.154-0.144-0.248-0.196
			c-0.094-0.052-0.197-0.087-0.294-0.098c-0.098-0.011-0.188,0.002-0.265,0.037c-0.076,0.035-0.136,0.089-0.18,0.159
			c-0.044,0.07-0.069,0.147-0.083,0.224c-0.013,0.076-0.017,0.155-0.011,0.229c0.006,0.075,0.021,0.148,0.052,0.222
			c0.031,0.074,0.077,0.149,0.146,0.225c0.069,0.077,0.156,0.146,0.251,0.198c0.095,0.052,0.199,0.087,0.297,0.097
			c0.098,0.01,0.189-0.004,0.265-0.04c0.076-0.036,0.135-0.091,0.178-0.161c0.043-0.07,0.067-0.148,0.08-0.225
			c0.013-0.076,0.016-0.154,0.009-0.229C103.235,94.964,103.22,94.892,103.189,94.819z"/>
		<path class="st1" d="M75.509,84.899c-0.233,0.233-0.155,0.689,0.175,1.019c0.33,0.329,0.786,0.408,1.019,0.175
			c0.233-0.233,0.155-0.689-0.175-1.019C76.198,84.744,75.742,84.666,75.509,84.899z"/>
		<path class="st1" d="M47.124,74.273c0.233-0.233,0.177-0.667-0.125-0.969s-0.736-0.358-0.969-0.125
			c-0.233,0.233-0.177,0.667,0.125,0.969C46.457,74.45,46.891,74.506,47.124,74.273z"/>
		<path class="st1" d="M80.717,33.827c-0.357,0-0.646,0.267-0.646,0.597c0,0.33,0.289,0.597,0.646,0.597
			c0.357,0,0.646-0.267,0.646-0.597C81.364,34.094,81.074,33.827,80.717,33.827z"/>
		<path class="st1" d="M76.277,47.363c0,0.33,0.2,0.597,0.448,0.597s0.448-0.267,0.448-0.597c0-0.329-0.2-0.597-0.448-0.597
			S76.277,47.034,76.277,47.363z"/>
		
			<ellipse transform="matrix(0.7071 -0.7071 0.7071 0.7071 -9.635 65.2713)" class="st1" cx="73.972" cy="44.266" rx="0.597" ry="0.492"/>
		<path class="st1" d="M21.181,74.7c0.224-0.062,0.472-0.215,0.683-0.425c0.211-0.21,0.348-0.434,0.417-0.637
			c0.067-0.203,0.068-0.392-0.034-0.522c-0.101-0.129-0.294-0.169-0.524-0.111c-0.229,0.057-0.486,0.21-0.701,0.425
			c-0.216,0.216-0.354,0.448-0.419,0.656c-0.063,0.208-0.056,0.397,0.052,0.522C20.763,74.731,20.957,74.762,21.181,74.7z"/>
		<path class="st1" d="M4.969,90.761c-0.233,0.233-0.222,0.622,0.026,0.869c0.247,0.247,0.636,0.259,0.87,0.026
			c0.233-0.233,0.222-0.622-0.026-0.869C5.591,90.54,5.202,90.528,4.969,90.761z"/>
		<path class="st1" d="M4.875,51.003c-0.247-0.247-0.636-0.259-0.87-0.026c-0.233,0.233-0.222,0.622,0.026,0.869
			c0.247,0.247,0.636,0.259,0.87,0.026C5.133,51.639,5.122,51.25,4.875,51.003z"/>
		<path class="st1" d="M21.591,116.837c-0.659,0-1.193,0.267-1.193,0.597c0,0.329,0.534,0.597,1.193,0.597
			c0.659,0,1.194-0.267,1.194-0.597C22.785,117.104,22.251,116.837,21.591,116.837z"/>
		<path class="st1" d="M7.206,118.626c-0.247,0-0.448,0.267-0.448,0.597c0,0.329,0.2,0.597,0.448,0.597
			c0.247,0,0.448-0.267,0.448-0.597C7.653,118.894,7.453,118.626,7.206,118.626z"/>
		<path class="st1" d="M56.141,124.863c-0.233,0.233-0.266,0.578-0.074,0.77c0.192,0.192,0.537,0.159,0.77-0.074
			c0.233-0.233,0.266-0.578,0.074-0.77C56.718,124.597,56.374,124.63,56.141,124.863z"/>
		<path class="st1" d="M94.265,121.827c-0.233,0.233,0.046,0.89,0.622,1.466c0.577,0.577,1.233,0.855,1.466,0.622
			c0.233-0.233-0.046-0.89-0.622-1.466C95.155,121.872,94.498,121.594,94.265,121.827z"/>
		<path class="st1" d="M109.832,114.576c-0.005-0.088-0.035-0.167-0.094-0.226c-0.165-0.165-0.487-0.109-0.72,0.124
			s-0.288,0.556-0.124,0.72c0.165,0.165,0.487,0.109,0.72-0.124c0.001-0.001,0.002-0.002,0.003-0.003
			c-0.002,0.033-0.003,0.068-0.003,0.103c0,0.33,0.089,0.597,0.199,0.597c0.11,0,0.199-0.267,0.199-0.597
			C110.013,114.859,109.933,114.604,109.832,114.576z"/>
		<path class="st1" d="M110.65,105.723c-0.275,0.275-0.308,0.686-0.075,0.919c0.233,0.233,0.645,0.199,0.919-0.075
			c0.275-0.275,0.308-0.686,0.075-0.919C111.336,105.415,110.924,105.449,110.65,105.723z"/>
		<path class="st1" d="M109.489,33.781c0.577,0,1.044-0.267,1.044-0.597c0-0.33-0.468-0.597-1.044-0.597
			c-0.577,0-1.044,0.267-1.044,0.597C108.444,33.514,108.912,33.781,109.489,33.781z"/>
		<path class="st1" d="M94.441,23.733c0.114-0.119,0.145-0.296,0.099-0.486c-0.046-0.19-0.168-0.39-0.348-0.552
			c-0.18-0.162-0.382-0.256-0.569-0.284c-0.187-0.027-0.36,0.011-0.475,0.129c-0.115,0.117-0.149,0.295-0.103,0.486
			c0.045,0.191,0.167,0.393,0.349,0.556c0.181,0.163,0.386,0.258,0.573,0.285C94.154,23.892,94.327,23.851,94.441,23.733z"/>
		<path class="st1" d="M75.899,13.82c0.412,0,0.746-0.267,0.746-0.597s-0.334-0.597-0.746-0.597c-0.412,0-0.746,0.267-0.746,0.597
			S75.487,13.82,75.899,13.82z"/>
		<path class="st1" d="M65.66,26.644c0.153,0.01,0.313-0.046,0.434-0.167c0.121-0.121,0.177-0.281,0.167-0.434
			c-0.009-0.153-0.083-0.299-0.209-0.404c-0.127-0.105-0.281-0.153-0.424-0.153c-0.144,0-0.278,0.048-0.378,0.147
			c-0.099,0.099-0.147,0.234-0.147,0.378c0,0.144,0.048,0.297,0.154,0.424C65.362,26.561,65.507,26.635,65.66,26.644z"/>
		<path class="st1" d="M49.258,7.479c0.148-0.002,0.296-0.065,0.413-0.182c0.116-0.117,0.181-0.263,0.196-0.403
			c0.015-0.14-0.019-0.275-0.108-0.376c-0.089-0.102-0.217-0.153-0.358-0.157c-0.141-0.004-0.294,0.04-0.426,0.14
			c-0.131,0.1-0.213,0.238-0.235,0.385c-0.022,0.146,0.017,0.299,0.121,0.418C48.964,7.422,49.11,7.481,49.258,7.479z"/>
		<path class="st1" d="M29.094,3.633c0.192,0,0.348-0.267,0.348-0.597c0-0.33-0.156-0.597-0.348-0.597
			c-0.192,0-0.348,0.267-0.348,0.597C28.746,3.366,28.902,3.633,29.094,3.633z"/>
		<path class="st1" d="M2.296,1.774C2.063,2.007,2.007,2.33,2.172,2.495c0.165,0.165,0.487,0.109,0.72-0.124
			c0.233-0.233,0.288-0.556,0.124-0.72C2.851,1.486,2.529,1.541,2.296,1.774z"/>
		<path class="st1" d="M9.573,32.454c-0.233,0.233-0.311,0.533-0.173,0.671c0.137,0.137,0.438,0.06,0.671-0.173
			c0.233-0.233,0.311-0.533,0.173-0.671C10.106,32.143,9.806,32.221,9.573,32.454z"/>
		<path class="st1" d="M98.063,44.932c0.522,0,0.945-0.267,0.945-0.597c0-0.33-0.423-0.597-0.945-0.597
			c-0.522,0-0.945,0.267-0.945,0.597C97.118,44.665,97.541,44.932,98.063,44.932z"/>
		<path class="st1" d="M16.748,59.596c-0.129-0.015-0.286-0.004-0.438,0.062c-0.151,0.065-0.265,0.18-0.311,0.327
			c-0.047,0.145-0.022,0.322,0.085,0.464c0.107,0.143,0.269,0.216,0.422,0.212c0.154-0.003,0.297-0.081,0.401-0.208
			c0.105-0.128,0.159-0.275,0.181-0.403c0.021-0.129,0.01-0.238-0.049-0.317C16.98,59.653,16.878,59.612,16.748,59.596z"/>
		<path class="st1" d="M15.312,98.214c-0.233,0.233-0.199,0.645,0.075,0.919c0.275,0.275,0.686,0.308,0.919,0.075
			c0.233-0.233,0.199-0.645-0.075-0.919C15.957,98.015,15.545,97.981,15.312,98.214z"/>
		<path class="st1" d="M27.786,105.411c-0.769,0-1.392,0.267-1.392,0.597c0,0.33,0.623,0.597,1.392,0.597
			c0.769,0,1.392-0.267,1.392-0.597C29.179,105.678,28.555,105.411,27.786,105.411z"/>
		<path class="st1" d="M39.075,120.943c-0.33,0-0.597,0.401-0.597,0.895c0,0.494,0.267,0.895,0.597,0.895
			c0.33,0,0.597-0.401,0.597-0.895C39.671,121.344,39.404,120.943,39.075,120.943z"/>
		<path class="st1" d="M118.359,124.609c-0.11-0.055-0.318,0.139-0.466,0.434s-0.178,0.578-0.068,0.633
			c0.11,0.055,0.318-0.14,0.466-0.434S118.469,124.664,118.359,124.609z"/>
		<path class="st1" d="M119.224,125.586c-0.233,0.233-0.066,0.778,0.374,1.218c0.439,0.439,0.985,0.607,1.218,0.374
			c0.233-0.233,0.066-0.778-0.374-1.218C120.002,125.52,119.457,125.353,119.224,125.586z"/>
		<path class="st1" d="M70.369,112.523c-0.233,0.233,0.112,0.956,0.772,1.616c0.659,0.659,1.382,1.005,1.616,0.771
			c0.233-0.233-0.112-0.956-0.772-1.616C71.326,112.635,70.602,112.29,70.369,112.523z"/>
		<path class="st1" d="M45.988,96.952c-0.233,0.233-0.066,0.778,0.374,1.218c0.44,0.439,0.985,0.607,1.218,0.374
			s0.066-0.778-0.374-1.218C46.766,96.886,46.221,96.719,45.988,96.952z"/>
		<path class="st1" d="M111.485,12.351c-0.879,0-1.591,0.267-1.591,0.597c0,0.33,0.712,0.597,1.591,0.597s1.591-0.267,1.591-0.597
			C113.076,12.618,112.364,12.351,111.485,12.351z"/>
		<path class="st1" d="M93.681,5.514c0-0.33-0.534-0.597-1.194-0.597c-0.659,0-1.194,0.267-1.194,0.597
			c0,0.33,0.534,0.597,1.194,0.597C93.146,6.111,93.681,5.844,93.681,5.514z"/>
		<path class="st1" d="M120.18,71.753c0.233-0.233,0.288-0.556,0.124-0.72c-0.165-0.165-0.487-0.11-0.72,0.124
			c-0.233,0.233-0.288,0.556-0.124,0.72C119.625,72.041,119.947,71.986,120.18,71.753z"/>
		<path class="st1" d="M110.751,46.813c0-0.33-0.534-0.597-1.194-0.597c-0.659,0-1.194,0.267-1.194,0.597s0.534,0.597,1.194,0.597
			C110.217,47.41,110.751,47.143,110.751,46.813z"/>
		<ellipse class="st1" cx="120.57" cy="23.686" rx="0.995" ry="0.597"/>
		<path class="st1" d="M124.043,64.052c0.233-0.233-0.023-0.867-0.573-1.417c-0.549-0.549-1.184-0.806-1.417-0.573
			c-0.233,0.233,0.023,0.867,0.573,1.417C123.176,64.028,123.81,64.285,124.043,64.052z"/>
		<path class="st1" d="M114.306,92.86c-0.233,0.233-0.021,0.823,0.473,1.317c0.494,0.494,1.084,0.706,1.317,0.473
			c0.233-0.233,0.021-0.823-0.473-1.317C115.129,92.839,114.539,92.627,114.306,92.86z"/>
		<path class="st1" d="M75.96,75.714c-0.233,0.233-0.11,0.734,0.274,1.118s0.885,0.507,1.118,0.274
			c0.233-0.233,0.11-0.734-0.274-1.118C76.694,75.604,76.193,75.481,75.96,75.714z"/>
		<path class="st1" d="M124.425,107.889c-0.659,0-1.193,0.267-1.193,0.597c0,0.33,0.534,0.597,1.193,0.597
			c0.659,0,1.194-0.267,1.194-0.597C125.618,108.156,125.084,107.889,124.425,107.889z"/>
		<path class="st1" d="M71.716,124.056c-0.233,0.233-0.244,0.6-0.024,0.82c0.22,0.22,0.587,0.209,0.82-0.024
			c0.233-0.233,0.244-0.6,0.024-0.82C72.316,123.813,71.949,123.823,71.716,124.056z"/>
	</g>
</g>
</svg>
